<svg width="17" height="17" viewBox="0 0 17 17" fill="none" xmlns="http://www.w3.org/2000/svg">
<circle cx="8.5" cy="8.5" r="8" stroke="#1D1D1D"/>
<mask id="path-2-inside-1_2573_16292" fill="white">
<path d="M12.5025 11.0849C11.8945 11.8077 11.0817 12.3294 10.1713 12.5812C9.26091 12.833 8.29558 12.8031 7.4025 12.4955C6.50941 12.1879 5.73046 11.617 5.16825 10.8579C4.60604 10.0989 4.28696 9.18733 4.25302 8.24336C4.21908 7.29939 4.47189 6.36728 4.97814 5.56982C5.48439 4.77236 6.22033 4.14695 7.08902 3.776C7.95771 3.40504 8.91839 3.30592 9.84452 3.49171C10.7706 3.6775 11.6188 4.13948 12.2772 4.81678L11.0033 6.05505C10.5951 5.63512 10.0693 5.3487 9.4951 5.23351C8.9209 5.11832 8.32528 5.17977 7.78669 5.40977C7.2481 5.63976 6.79182 6.02751 6.47795 6.52193C6.16407 7.01636 6.00733 7.59427 6.02837 8.17953C6.04941 8.76479 6.24725 9.32995 6.59582 9.80056C6.94439 10.2712 7.42734 10.6252 7.98105 10.8159C8.53476 11.0066 9.13326 11.0251 9.69771 10.869C10.2622 10.7129 10.7661 10.3894 11.1431 9.94127L12.5025 11.0849Z"/>
</mask>
<path d="M12.5025 11.0849C11.8945 11.8077 11.0817 12.3294 10.1713 12.5812C9.26091 12.833 8.29558 12.8031 7.4025 12.4955C6.50941 12.1879 5.73046 11.617 5.16825 10.8579C4.60604 10.0989 4.28696 9.18733 4.25302 8.24336C4.21908 7.29939 4.47189 6.36728 4.97814 5.56982C5.48439 4.77236 6.22033 4.14695 7.08902 3.776C7.95771 3.40504 8.91839 3.30592 9.84452 3.49171C10.7706 3.6775 11.6188 4.13948 12.2772 4.81678L11.0033 6.05505C10.5951 5.63512 10.0693 5.3487 9.4951 5.23351C8.9209 5.11832 8.32528 5.17977 7.78669 5.40977C7.2481 5.63976 6.79182 6.02751 6.47795 6.52193C6.16407 7.01636 6.00733 7.59427 6.02837 8.17953C6.04941 8.76479 6.24725 9.32995 6.59582 9.80056C6.94439 10.2712 7.42734 10.6252 7.98105 10.8159C8.53476 11.0066 9.13326 11.0251 9.69771 10.869C10.2622 10.7129 10.7661 10.3894 11.1431 9.94127L12.5025 11.0849Z" stroke="#1D1D1D" stroke-width="2" mask="url(#path-2-inside-1_2573_16292)"/>
</svg>
