<svg width="36" height="36" viewBox="0 0 36 36" fill="none" xmlns="http://www.w3.org/2000/svg">
<g clip-path="url(#clip0_2573_15883)">
<path d="M17.9998 2.16602C13.8006 2.16602 9.7733 3.83417 6.80398 6.80349C3.83465 9.77282 2.1665 13.8001 2.1665 17.9993C2.1665 22.1986 3.83465 26.2259 6.80398 29.1952C9.7733 32.1645 13.8006 33.8327 17.9998 33.8327C22.1991 33.8327 26.2264 32.1645 29.1957 29.1952C32.165 26.2259 33.8332 22.1986 33.8332 17.9993C33.8332 13.8001 32.165 9.77282 29.1957 6.80349C26.2264 3.83417 22.1991 2.16602 17.9998 2.16602Z" fill="#039BE5"/>
<path d="M20.1435 22.1971H24.241L24.8844 18.0346H20.1427V15.7596C20.1427 14.0305 20.7077 12.4971 22.3252 12.4971H24.9244V8.86464C24.4677 8.80297 23.5019 8.66797 21.6769 8.66797C17.866 8.66797 15.6319 10.6805 15.6319 15.2655V18.0346H11.7144V22.1971H15.6319V33.638C16.4077 33.7546 17.1935 33.8338 18.0002 33.8338C18.7294 33.8338 19.441 33.7671 20.1435 33.6721V22.1971Z" fill="white"/>
</g>
<defs>
<clipPath id="clip0_2573_15883">
<rect width="36" height="36" fill="white"/>
</clipPath>
</defs>
</svg>
