<svg width="48" height="48" viewBox="0 0 48 48" fill="none" xmlns="http://www.w3.org/2000/svg">
<rect width="48" height="48" rx="24" fill="#F2EAD3"/>
<path d="M23.049 11.2024C23.3483 10.2811 24.6517 10.2811 24.9511 11.2024L27.3058 18.4495C27.4397 18.8615 27.8236 19.1405 28.2568 19.1405L35.8769 19.1405C36.8456 19.1405 37.2484 20.3801 36.4647 20.9495L30.2999 25.4285C29.9494 25.6831 29.8028 26.1345 29.9367 26.5465L32.2914 33.7936C32.5907 34.7149 31.5362 35.481 30.7525 34.9116L24.5878 30.4327C24.2373 30.178 23.7627 30.178 23.4122 30.4327L17.2475 34.9116C16.4638 35.481 15.4093 34.7149 15.7087 33.7936L18.0634 26.5465C18.1972 26.1345 18.0506 25.6831 17.7001 25.4285L11.5354 20.9495C10.7517 20.3801 11.1544 19.1405 12.1232 19.1405L19.7432 19.1405C20.1764 19.1405 20.5604 18.8615 20.6942 18.4495L23.049 11.2024Z" fill="#1D1D1D"/>
</svg>
