<svg width="22" height="22" viewBox="0 0 22 22" fill="none" xmlns="http://www.w3.org/2000/svg">
<g clip-path="url(#clip0_2573_17066)">
<path d="M21.0623 7.79451L19.1661 5.8983C19.0131 5.74737 18.8092 5.65924 18.5944 5.65129C18.3796 5.64334 18.1697 5.71613 18.006 5.85533C17.7532 6.07049 17.4288 6.18283 17.0971 6.1701C16.7654 6.15737 16.4506 6.02048 16.215 5.78658C15.9812 5.55106 15.8444 5.23633 15.8317 4.90472C15.819 4.57312 15.9312 4.24882 16.1463 3.99607C16.2855 3.83234 16.3583 3.62239 16.3503 3.40764C16.3424 3.19288 16.2542 2.9889 16.1033 2.83591L14.2054 0.937554C14.045 0.77747 13.8276 0.687561 13.601 0.687561C13.3744 0.687561 13.1571 0.77747 12.9967 0.937554L9.97382 3.95998C9.78719 4.14727 9.64645 4.37523 9.56261 4.62599C9.54628 4.6742 9.51907 4.71801 9.48308 4.754C9.44708 4.78999 9.40328 4.81721 9.35507 4.83353C9.1042 4.91737 8.87622 5.05828 8.68905 5.24517L0.937493 12.9967C0.777409 13.1571 0.6875 13.3745 0.6875 13.6011C0.6875 13.8277 0.777409 14.0451 0.937493 14.2054L2.83585 16.1017C2.98884 16.2526 3.19282 16.3407 3.40758 16.3487C3.62233 16.3566 3.83228 16.2838 3.99601 16.1446C4.24818 15.9277 4.57301 15.8141 4.9054 15.8266C5.2378 15.8391 5.55319 15.9767 5.78839 16.2119C6.02359 16.4471 6.16122 16.7625 6.17371 17.0949C6.18619 17.4273 6.0726 17.7521 5.85569 18.0043C5.7165 18.168 5.6437 18.378 5.65166 18.5927C5.65961 18.8075 5.74774 19.0115 5.89866 19.1645L7.79487 21.0607C7.95527 21.2208 8.17262 21.3107 8.39923 21.3107C8.62584 21.3107 8.84319 21.2208 9.00358 21.0607L16.7551 13.3091C16.9419 13.122 17.0828 12.8942 17.1668 12.6435C17.183 12.5952 17.2103 12.5512 17.2464 12.5151C17.2824 12.4791 17.3264 12.4518 17.3748 12.4356C17.6254 12.3517 17.8532 12.211 18.0403 12.0244L21.0628 9.0015C21.2223 8.84112 21.3118 8.6241 21.3117 8.39791C21.3116 8.17172 21.2219 7.95477 21.0623 7.79451ZM11.2496 6.52048C11.1857 6.58434 11.1099 6.635 11.0265 6.66956C10.9431 6.70411 10.8537 6.7219 10.7634 6.7219C10.6731 6.7219 10.5837 6.70411 10.5002 6.66956C10.4168 6.635 10.341 6.58434 10.2772 6.52048L9.78261 6.02591C9.65682 5.89633 9.58706 5.72246 9.58842 5.54187C9.58978 5.36128 9.66214 5.18847 9.78987 5.0608C9.9176 4.93313 10.0904 4.86084 10.271 4.85956C10.4516 4.85828 10.6255 4.92811 10.755 5.05396L11.2496 5.5481C11.3134 5.61194 11.3641 5.68774 11.3986 5.77116C11.4332 5.85458 11.451 5.944 11.451 6.03429C11.451 6.12459 11.4332 6.214 11.3986 6.29742C11.3641 6.38084 11.3134 6.45664 11.2496 6.52048ZM13.1402 8.41111C13.0113 8.53994 12.8365 8.61231 12.6542 8.61231C12.472 8.61231 12.2972 8.53994 12.1682 8.41111L11.6956 7.93845C11.6317 7.8746 11.5811 7.79881 11.5465 7.71539C11.512 7.63197 11.4942 7.54255 11.4942 7.45226C11.4942 7.36197 11.512 7.27256 11.5465 7.18914C11.5811 7.10572 11.6317 7.02992 11.6956 6.96607C11.8245 6.83712 11.9994 6.76468 12.1818 6.76468C12.2721 6.76468 12.3615 6.78247 12.4449 6.81702C12.5283 6.85158 12.6041 6.90222 12.668 6.96607L13.1406 7.43873C13.2047 7.50256 13.2555 7.57842 13.2903 7.66194C13.325 7.74547 13.3429 7.83502 13.3429 7.92547C13.3429 8.01592 13.3251 8.10549 13.2905 8.18905C13.2559 8.2726 13.2051 8.3485 13.141 8.4124L13.1402 8.41111ZM15.0308 10.3017C14.967 10.3656 14.8912 10.4162 14.8077 10.4508C14.7243 10.4854 14.6349 10.5032 14.5446 10.5032C14.4543 10.5032 14.3649 10.4854 14.2815 10.4508C14.1981 10.4162 14.1223 10.3656 14.0584 10.3017L13.5858 9.82908C13.46 9.6995 13.3902 9.52562 13.3916 9.34503C13.3929 9.16444 13.4653 8.99164 13.593 8.86396C13.7208 8.73629 13.8936 8.664 14.0742 8.66272C14.2548 8.66144 14.4286 8.73127 14.5582 8.85712L15.0308 9.32978C15.0951 9.39351 15.1461 9.4693 15.181 9.55281C15.2159 9.63631 15.234 9.72588 15.2342 9.81639C15.2344 9.90689 15.2167 9.99654 15.1822 10.0802C15.1476 10.1639 15.0969 10.2399 15.033 10.3039L15.0308 10.3017ZM16.9399 12.2156C16.8761 12.2794 16.8003 12.3301 16.7168 12.3646C16.6334 12.3992 16.544 12.417 16.4537 12.417C16.3634 12.417 16.274 12.3992 16.1906 12.3646C16.1072 12.3301 16.0314 12.2794 15.9675 12.2156L15.476 11.7214C15.4108 11.6578 15.3589 11.5818 15.3233 11.4979C15.2877 11.414 15.2692 11.3239 15.2688 11.2328C15.2683 11.1417 15.286 11.0514 15.3208 10.9671C15.3555 10.8829 15.4067 10.8065 15.4713 10.7422C15.5359 10.6779 15.6126 10.6271 15.697 10.5928C15.7814 10.5584 15.8718 10.5411 15.9629 10.542C16.054 10.5429 16.144 10.5619 16.2277 10.5979C16.3114 10.6338 16.3872 10.6861 16.4505 10.7516L16.9425 11.2453C17.0063 11.3092 17.0569 11.385 17.0915 11.4685C17.126 11.5519 17.1437 11.6413 17.1437 11.7316C17.1437 11.8219 17.1258 11.9113 17.0912 11.9947C17.0566 12.0781 17.0059 12.1539 16.9421 12.2177L16.9399 12.2156Z" fill="#EEEEEE"/>
</g>
<defs>
<clipPath id="clip0_2573_17066">
<rect width="22" height="22" fill="white"/>
</clipPath>
</defs>
</svg>
