<svg width="123" height="90" viewBox="0 0 123 90" fill="none" xmlns="http://www.w3.org/2000/svg">
<path d="M6.03405 90H116.326C120.775 90 123.69 85.3336 121.747 81.3219L99.429 35.2415C97.6443 31.5565 92.7952 30.6829 89.8419 33.5143L73.0713 49.5925C70.4371 52.118 66.1864 51.7395 64.0376 48.7881L41.4461 17.7585C38.7708 14.0839 33.1563 14.5799 31.1635 18.6668L0.619607 81.3075C-1.33703 85.3203 1.57792 90 6.03405 90Z" fill="white"/>
<path d="M81.3542 9.66443C81.3542 15.0019 77.0372 19.3289 71.7119 19.3289C66.3866 19.3289 62.0695 15.0019 62.0695 9.66443C62.0695 4.32691 66.3866 0 71.7119 0C77.0372 0 81.3542 4.32691 81.3542 9.66443Z" fill="white"/>
</svg>
